<svg width="232" height="60" viewBox="0 0 232 60" fill="none" xmlns="http://www.w3.org/2000/svg">
<line x1="29" y1="31" x2="47" y2="31" stroke="#E8AA31" stroke-width="2"/>
<line x1="62" y1="31" x2="80" y2="31" stroke="white" stroke-width="2"/>
<line x1="97" y1="31" x2="115" y2="31" stroke="white" stroke-width="2"/>
<line x1="132" y1="31" x2="150" y2="31" stroke="white" stroke-width="2"/>
<path d="M190.064 32.24C188.736 32.24 187.536 31.904 186.464 31.232C185.408 30.56 184.576 29.584 183.968 28.304C183.36 27.008 183.056 25.44 183.056 23.6C183.056 21.76 183.36 20.2 183.968 18.92C184.576 17.624 185.408 16.64 186.464 15.968C187.536 15.296 188.736 14.96 190.064 14.96C191.408 14.96 192.608 15.296 193.664 15.968C194.72 16.64 195.552 17.624 196.16 18.92C196.784 20.2 197.096 21.76 197.096 23.6C197.096 25.44 196.784 27.008 196.16 28.304C195.552 29.584 194.72 30.56 193.664 31.232C192.608 31.904 191.408 32.24 190.064 32.24ZM190.064 29.528C190.848 29.528 191.528 29.32 192.104 28.904C192.68 28.472 193.128 27.816 193.448 26.936C193.784 26.056 193.952 24.944 193.952 23.6C193.952 22.24 193.784 21.128 193.448 20.264C193.128 19.384 192.68 18.736 192.104 18.32C191.528 17.888 190.848 17.672 190.064 17.672C189.312 17.672 188.64 17.888 188.048 18.32C187.472 18.736 187.016 19.384 186.68 20.264C186.36 21.128 186.2 22.24 186.2 23.6C186.2 24.944 186.36 26.056 186.68 26.936C187.016 27.816 187.472 28.472 188.048 28.904C188.64 29.32 189.312 29.528 190.064 29.528ZM204.269 32V16.4L205.637 17.816H200.717V15.2H207.389V32H204.269Z" fill="#E8AA31"/>
<path d="M211.526 33.8L217.466 16.844H219.482L213.542 33.8H211.526ZM219.98 29.138V27.518L226.19 19.4H228.692L222.572 27.518L221.402 27.158H231.392V29.138H219.98ZM226.892 32V29.138L226.964 27.158V24.62H229.16V32H226.892Z" fill="white"/>
<g filter="url(#filter0_d_39_2485)">
<circle cx="25" cy="31" r="5" fill="#E8AA31"/>
</g>
<defs>
<filter id="filter0_d_39_2485" x="0" y="10" width="50" height="50" filterUnits="userSpaceOnUse" color-interpolation-filters="sRGB">
<feFlood flood-opacity="0" result="BackgroundImageFix"/>
<feColorMatrix in="SourceAlpha" type="matrix" values="0 0 0 0 0 0 0 0 0 0 0 0 0 0 0 0 0 0 127 0" result="hardAlpha"/>
<feOffset dy="4"/>
<feGaussianBlur stdDeviation="10"/>
<feColorMatrix type="matrix" values="0 0 0 0 0.909804 0 0 0 0 0.666667 0 0 0 0 0.192157 0 0 0 0.66 0"/>
<feBlend mode="normal" in2="BackgroundImageFix" result="effect1_dropShadow_39_2485"/>
<feBlend mode="normal" in="SourceGraphic" in2="effect1_dropShadow_39_2485" result="shape"/>
</filter>
</defs>
</svg>
