<svg width="22" height="29" viewBox="0 0 22 29" fill="none" xmlns="http://www.w3.org/2000/svg">
<rect width="22" height="29" fill="#E5E5E5"/>
<g clip-path="url(#clip0_0_1)">
<rect width="1920" height="11298" transform="translate(-1555 -24)" fill="white"/>
<g filter="url(#filter0_d_0_1)">
<rect x="-1555" y="-23" width="1922" height="70" fill="#141414"/>
</g>
<path fill-rule="evenodd" clip-rule="evenodd" d="M10.6773 15.3117H10.5941C9.06976 15.2831 7.83677 14.6931 6.93153 13.5646C4.92857 11.0784 5.26153 6.81654 5.29795 6.40983C5.42801 3.33369 6.75985 1.87296 7.85237 1.19128C8.9397 0.509605 10.0738 0.406494 10.6513 0.406494H10.6825H10.7033H10.7398C11.7907 0.429408 12.7323 0.704369 13.5387 1.21419C14.6208 1.89587 15.9319 3.35661 16.0619 6.40983C16.0983 6.81654 16.4313 11.0784 14.4283 13.5646C13.5179 14.6931 12.2849 15.2831 10.7606 15.3117H10.7085H10.6773ZM6.69001 6.52561C6.68859 6.53412 6.68701 6.54358 6.68701 6.55304C6.68181 6.58741 6.32804 10.4999 7.97723 12.5392C8.62755 13.3526 9.50677 13.7536 10.6513 13.7651H10.6773H10.7033C11.8531 13.7536 12.7271 13.3526 13.3826 12.5392C15.037 10.4884 14.6728 6.59313 14.6676 6.55304C14.6624 6.54158 14.6624 6.52439 14.6624 6.50721C14.5012 2.62337 12.1132 1.99325 10.7085 1.95888H10.6669H10.6461C9.51197 1.95888 6.8639 2.39997 6.69222 6.50721C6.69222 6.51236 6.69117 6.51867 6.69001 6.52561ZM21.3682 22.3633V22.3805C21.3734 22.6784 21.3786 24.2079 21.1185 24.9697C21.0664 25.1187 20.9676 25.2447 20.8479 25.3306L20.8457 25.3322C20.6596 25.4621 16.9243 28.0688 10.6926 28.0688C4.43396 28.0688 0.693352 25.4452 0.537276 25.3306C0.412415 25.2447 0.31877 25.1187 0.266745 24.9697C-0.00898899 24.2021 -0.00378658 22.6727 0.00141594 22.3748V22.3576C0.00661846 22.3118 0.00661858 22.266 0.00661858 22.2144L0.00685747 22.2058C0.0381919 21.0724 0.111208 18.4315 2.36336 17.5801C2.37897 17.5744 2.39458 17.5687 2.41539 17.563C4.77213 16.9042 6.71267 15.4148 6.73348 15.3976C7.05083 15.1513 7.48784 15.2372 7.71155 15.5867C7.93526 15.9361 7.85722 16.4173 7.53987 16.6636C7.5359 16.6664 7.52795 16.6723 7.51614 16.6811C7.26466 16.8677 5.26463 18.352 2.78997 19.0523C1.57778 19.5278 1.44251 20.9542 1.4061 22.2602C1.4061 22.2868 1.40472 22.3118 1.40338 22.3361C1.40212 22.359 1.40089 22.3812 1.40089 22.4034C1.39049 22.919 1.42691 23.7152 1.51015 24.1735C2.35816 24.7005 5.68257 26.5279 10.6874 26.5279C15.713 26.5279 19.0166 24.7062 19.8594 24.1792C19.9427 23.721 19.9739 22.9247 19.9687 22.4092C19.9635 22.3633 19.9635 22.3175 19.9635 22.266C19.9271 20.9599 19.7918 19.5335 18.5796 19.0581C15.9888 18.3248 13.9182 16.7381 13.8297 16.6693C13.5124 16.423 13.4343 15.9418 13.658 15.5924C13.8817 15.243 14.3188 15.157 14.6361 15.4034C14.6569 15.4206 16.6079 16.9099 18.9542 17.5687C18.962 17.5716 18.9711 17.5744 18.9802 17.5773C18.9893 17.5801 18.9984 17.583 19.0062 17.5859C21.2588 18.4317 21.3314 21.0733 21.3627 22.212L21.363 22.2201C21.363 22.2467 21.3643 22.2717 21.3657 22.296C21.3669 22.3189 21.3682 22.3411 21.3682 22.3633Z" fill="white"/>
</g>
<defs>
<filter id="filter0_d_0_1" x="-1575" y="-39" width="1962" height="110" filterUnits="userSpaceOnUse" color-interpolation-filters="sRGB">
<feFlood flood-opacity="0" result="BackgroundImageFix"/>
<feColorMatrix in="SourceAlpha" type="matrix" values="0 0 0 0 0 0 0 0 0 0 0 0 0 0 0 0 0 0 127 0" result="hardAlpha"/>
<feOffset dy="4"/>
<feGaussianBlur stdDeviation="10"/>
<feColorMatrix type="matrix" values="0 0 0 0 0.6625 0 0 0 0 0.6625 0 0 0 0 0.6625 0 0 0 0.18 0"/>
<feBlend mode="normal" in2="BackgroundImageFix" result="effect1_dropShadow_0_1"/>
<feBlend mode="normal" in="SourceGraphic" in2="effect1_dropShadow_0_1" result="shape"/>
</filter>
<clipPath id="clip0_0_1">
<rect width="1920" height="11298" fill="white" transform="translate(-1555 -24)"/>
</clipPath>
</defs>
</svg>
