<svg width="50" height="50" viewBox="0 0 50 50" fill="none" xmlns="http://www.w3.org/2000/svg">
<path d="M0 0H47C48.6569 0 50 1.34315 50 3V47C50 48.6569 48.6569 50 47 50H0V0Z" fill="#E8AA31"/>
<path d="M29.6762 25.6758L22.8874 32.4644C22.4556 32.8964 21.7554 32.8964 21.3238 32.4644C20.8921 32.0327 20.8921 31.3326 21.3238 30.9009L27.3308 24.8941L21.3239 18.8875C20.8923 18.4556 20.8923 17.7556 21.3239 17.3239C21.7556 16.892 22.4557 16.892 22.8876 17.3239L29.6764 24.1125C29.8922 24.3285 30 24.6112 30 24.8941C30 25.1771 29.892 25.46 29.6762 25.6758Z" fill="white"/>
</svg>
