<svg width="19" height="16" viewBox="0 0 19 16" fill="none" xmlns="http://www.w3.org/2000/svg">
<rect width="19" height="16" fill="#E5E5E5"/>
<rect x="-165" y="-581" width="1922" height="1071" fill="#141414"/>
<path d="M17.6119 11.6797L15.4106 9.7111C14.8038 9.1684 13.8162 9.1684 13.2094 9.7111L12.2089 10.6059C11.7491 11.0171 11.001 11.0169 10.5414 10.6061L6.20457 6.72429C5.74374 6.31217 5.74367 5.64513 6.20457 5.23294C6.36573 5.08882 6.8285 4.67496 7.20512 4.33815C7.80933 3.79782 7.81777 2.91744 7.20453 2.36907L5.00388 0.407207C4.397 -0.135498 3.40953 -0.135498 2.80428 0.405784C2.35137 0.8073 2.20528 0.936829 2.00221 1.11686C-0.186265 3.074 -0.186265 6.25851 2.0021 8.21558L8.87365 14.3641C11.0672 16.3258 14.6176 16.326 16.8114 14.3641L17.6119 13.6482C18.2187 13.1055 18.2187 12.2224 17.6119 11.6797ZM3.53642 1.06339C3.7387 0.882487 4.0678 0.882457 4.27074 1.06388L6.47138 3.02575C6.67415 3.20709 6.67415 3.50057 6.47138 3.68193L6.10448 4.01002L3.17142 1.38696L3.53642 1.06339ZM9.60752 13.708L2.73594 7.55943C1.04278 6.04522 0.949713 3.66758 2.44972 2.05394L5.37428 4.66939C4.60582 5.44845 4.63785 6.63559 5.47066 7.38038L9.80735 11.262C9.80738 11.262 9.80745 11.2621 9.80749 11.2621C10.6394 12.0061 11.9668 12.0366 12.839 11.3484L15.7636 13.9639C13.965 15.3031 11.3123 15.2326 9.60752 13.708ZM16.8782 12.992L16.5113 13.3202L13.5763 10.6954L13.9431 10.3673C14.1455 10.1864 14.4746 10.1864 14.6769 10.3673L16.8781 12.3359C17.0805 12.5168 17.0805 12.8112 16.8782 12.992Z" fill="white"/>
</svg>
