<svg width="14" height="17" viewBox="0 0 14 17" fill="none" xmlns="http://www.w3.org/2000/svg">
<rect width="14" height="17" fill="#E5E5E5"/>
<rect x="-167" y="-689" width="1922" height="1071" fill="#141414"/>
<path d="M7.21395 0C3.63411 0 0.72168 2.60071 0.72168 5.7974C0.72168 6.87745 1.05672 7.93148 1.6908 8.84592L6.84439 16.262C6.94311 16.4041 7.11703 16.4904 7.30408 16.4904C7.30552 16.4904 7.30693 16.4904 7.30837 16.4904C7.49705 16.489 7.67133 16.4001 7.76824 16.2555L12.7905 8.76759C13.3896 7.87248 13.7062 6.8454 13.7062 5.7974C13.7062 2.60071 10.7938 0 7.21395 0ZM11.8619 8.27153L7.29589 15.0792L2.61046 8.33685C2.08268 7.57571 1.79651 6.6976 1.79651 5.7974C1.79651 3.13349 4.23075 0.959791 7.21395 0.959791C10.1971 0.959791 12.6278 3.13349 12.6278 5.7974C12.6278 6.6709 12.3605 7.52657 11.8619 8.27153Z" fill="white"/>
<path d="M7.21399 2.44336C5.2252 2.44336 3.60718 3.81328 3.60718 5.49713C3.60718 7.17022 5.19887 8.5509 7.21399 8.5509C9.25397 8.5509 10.8208 7.15183 10.8208 5.49713C10.8208 3.81328 9.20279 2.44336 7.21399 2.44336ZM7.21399 7.53976C5.88119 7.53976 4.80143 6.62251 4.80143 5.49713C4.80143 4.37456 5.88813 3.4545 7.21399 3.4545C8.53986 3.4545 9.62255 4.37456 9.62255 5.49713C9.62255 6.60609 8.56791 7.53976 7.21399 7.53976Z" fill="white"/>
</svg>
